<?xml version="1.0" encoding="iso-8859-1"?>
<!-- Generator: Adobe Illustrator 21.0.2, SVG Export Plug-In . SVG Version: 6.00 Build 0)  -->
<svg xmlns="http://www.w3.org/2000/svg" xmlns:xlink="http://www.w3.org/1999/xlink" version="1.1" id="Layer_1" x="0px" y="0px" viewBox="0 0 40 40" style="enable-background:new 0 0 40 40;" xml:space="preserve">
<g>
	<path style="fill:#98CCFD;" d="M3,33.5c-0.827,0-1.5-0.673-1.5-1.5V8c0-0.827,0.673-1.5,1.5-1.5h34c0.827,0,1.5,0.673,1.5,1.5v24   c0,0.827-0.673,1.5-1.5,1.5H3z"/>
	<g>
		<path style="fill:#4788C7;" d="M37,7c0.551,0,1,0.449,1,1v24c0,0.551-0.449,1-1,1H3c-0.551,0-1-0.449-1-1V8c0-0.551,0.449-1,1-1    H37 M37,6H3C1.895,6,1,6.895,1,8v24c0,1.105,0.895,2,2,2h34c1.105,0,2-0.895,2-2V8C39,6.895,38.105,6,37,6L37,6z"/>
	</g>
</g>
<path style="fill:#FFFFFF;" d="M19,15.192C19.547,15.074,20.286,15,21.024,15c1.153,0,2.133,0.163,2.768,0.768  c0.591,0.517,0.857,1.344,0.857,2.186c0,1.079-0.324,1.846-0.841,2.393c-0.62,0.665-1.61,0.96-2.423,0.96  c-0.132,0-0.251,0-0.384-0.015V25h-2V15.192z M21,19.727c0.103,0.015,0.207,0.015,0.325,0.015c0.975,0,1.404-0.695,1.404-1.625  c0-0.872-0.355-1.551-1.256-1.551c-0.176,0-0.354,0.029-0.473,0.074V19.727z"/>
<path style="fill:#FFFFFF;" d="M26,15h2v10h-2V15z"/>
<path style="fill:#FFFFFF;" d="M15.952,25H18l-2.113-10h-2.532L11,25h2.048l0.436-2h2.047L15.952,25z M14.532,16.839h0.048  c0.097,0.653,0.242,1.662,0.355,2.27L15.256,21h-1.475l0.365-1.89C14.258,18.531,14.419,17.507,14.532,16.839z"/>
</svg>
