<?xml version="1.0" encoding="iso-8859-1"?>
<!-- Generator: Adobe Illustrator 21.0.2, SVG Export Plug-In . SVG Version: 6.00 Build 0)  -->
<svg xmlns="http://www.w3.org/2000/svg" xmlns:xlink="http://www.w3.org/1999/xlink" version="1.1" id="Layer_1" x="0px" y="0px" viewBox="0 0 40 40" style="enable-background:new 0 0 40 40;" xml:space="preserve">
<g>
	<path style="fill:#DFF0FE;" d="M20,34.5c-8.547,0-15.5-6.953-15.5-15.5v-2.5h31V19C35.5,27.547,28.547,34.5,20,34.5z"/>
	<path style="fill:#4788C7;" d="M35,17v2c0,8.271-6.729,15-15,15S5,27.271,5,19v-2H35 M36,16H4v3c0,8.837,7.163,16,16,16   s16-7.163,16-16V16L36,16z"/>
</g>
<path style="fill:#B6DCFE;" d="M20,18c-3.866,0-7,3.134-7,7v7.3c2.103,1.079,4.478,1.7,7,1.7s4.897-0.621,7-1.7V25  C27,21.134,23.866,18,20,18z"/>
<g>
	<circle style="fill:#98CCFD;" cx="20" cy="25" r="3.5"/>
	<g>
		<path style="fill:#4788C7;" d="M20,22c1.654,0,3,1.346,3,3s-1.346,3-3,3s-3-1.346-3-3S18.346,22,20,22 M20,21    c-2.209,0-4,1.791-4,4s1.791,4,4,4s4-1.791,4-4S22.209,21,20,21L20,21z"/>
	</g>
</g>
<path style="fill:none;stroke:#FFFFFF;stroke-linecap:round;stroke-miterlimit:10;" d="M18.5,24.5c0-0.552,0.448-1,1-1"/>
<g>
	<path style="fill:#B6DCFE;" d="M2.335,16.5c-0.414-1.063-1.761-4.968-1.832-11h38.994c-0.071,6.034-1.418,9.938-1.832,11H2.335z"/>
	<path style="fill:#4788C7;" d="M38.988,6c-0.125,5.182-1.192,8.681-1.669,10H2.681c-0.477-1.32-1.544-4.82-1.669-10H38.988 M40,5H0   c0,7.617,2,12,2,12h36C38,17,40,12.619,40,5L40,5z"/>
</g>
<g>
	<path style="fill:#4788C7;" d="M25,9H1.206c0.035,0.344,0.071,0.678,0.113,1H25V9z"/>
	<path style="fill:#4788C7;" d="M30,9v1h8.681c0.041-0.322,0.078-0.656,0.113-1H30z"/>
</g>
<path style="fill:#4788C7;" d="M23.5,10h2c0.275,0,0.5-0.225,0.5-0.5v0C26,9.225,25.775,9,25.5,9h-2C23.225,9,23,9.225,23,9.5v0  C23,9.775,23.225,10,23.5,10z"/>
<path style="fill:#4788C7;" d="M31.5,10h-2C29.225,10,29,9.775,29,9.5v0C29,9.225,29.225,9,29.5,9h2C31.775,9,32,9.225,32,9.5v0  C32,9.775,31.775,10,31.5,10z"/>
</svg>
