<?xml version="1.0"?>
<svg xmlns="http://www.w3.org/2000/svg" id="Layer_1" data-name="Layer 1" viewBox="0 0 64 64"><title>Dusk Part 2</title><rect x="29" y="47" width="6" height="6" style="fill:#ffeb9b;"/><polygon points="44 57 20 57 24 53 40 53 44 57" style="fill:#ffeb9b;"/><rect x="13" y="57" width="38" height="4" rx="2" ry="2" style="fill:#f5c872;"/><rect x="12" y="23" width="7" height="4" style="fill:#ffefb8;"/><rect x="45" y="23" width="7" height="4" style="fill:#ffefb8;"/><rect x="19" y="1" width="26" height="42" rx="13" ry="13" style="fill:#c2cde7;"/><path d="M19,25v5a13,13,0,0,0,26,0V25Z" style="fill:#b5c4e0;"/><path d="M22,27a1,1,0,0,0,1-1V24a1,1,0,0,0-2,0v2A1,1,0,0,0,22,27Z" style="fill:#8d6c9f;"/><path d="M27,27a1,1,0,0,0,1-1V24a1,1,0,0,0-2,0v2A1,1,0,0,0,27,27Z" style="fill:#8d6c9f;"/><path d="M32,27a1,1,0,0,0,1-1V24a1,1,0,0,0-2,0v2A1,1,0,0,0,32,27Z" style="fill:#8d6c9f;"/><path d="M37,27a1,1,0,0,0,1-1V24a1,1,0,0,0-2,0v2A1,1,0,0,0,37,27Z" style="fill:#8d6c9f;"/><path d="M42,27a1,1,0,0,0,1-1V24a1,1,0,0,0-2,0v2A1,1,0,0,0,42,27Z" style="fill:#8d6c9f;"/><path d="M51,22H46V14a14,14,0,0,0-28,0v8H13a2,2,0,0,0-2,2v2a2,2,0,0,0,2,2h1v2A18,18,0,0,0,28,47.54V52H25.66a5,5,0,0,0-3.54,1.46L19.59,56H15a3,3,0,0,0,0,6H49a3,3,0,0,0,0-6H44.41l-2.54-2.54A5,5,0,0,0,38.34,52H36V47.54A18,18,0,0,0,50,30V28h1a2,2,0,0,0,2-2V24A2,2,0,0,0,51,22ZM20,20h7a1,1,0,0,0,0-2H20V16h7a1,1,0,0,0,0-2H20a12,12,0,0,1,.18-2H27a1,1,0,0,0,0-2H20.7a12,12,0,0,1,22.6,0H37a1,1,0,0,0,0,2h6.82A12,12,0,0,1,44,14H37a1,1,0,0,0,0,2h7v2H37a1,1,0,0,0,0,2h7V30a12,12,0,0,1-24,0V20Zm-7,4h5v2H13ZM49,58a1,1,0,0,1,0,2H15a1,1,0,0,1,0-2H49Zm-8.54-3.12L41.59,56H22.41l1.12-1.12A3,3,0,0,1,25.66,54H38.34A3,3,0,0,1,40.46,54.88ZM34,52H30V47.88a17,17,0,0,0,4,0ZM48,30a16,16,0,0,1-32,0V28h2v2a14,14,0,0,0,28,0V28h2Zm3-4H46V24h5Z" style="fill:#8d6c9f;"/><path d="M24,32H40a1,1,0,0,0,0-2H24a1,1,0,0,0-1,1A.91.91,0,0,0,24,32Z" style="fill:#c7d0e5;"/></svg>
