<?xml version="1.0" encoding="iso-8859-1"?>
<!-- Generator: Adobe Illustrator 21.0.2, SVG Export Plug-In . SVG Version: 6.00 Build 0)  -->
<svg xmlns="http://www.w3.org/2000/svg" xmlns:xlink="http://www.w3.org/1999/xlink" version="1.1" id="Layer_1" x="0px" y="0px" viewBox="0 0 40 40" style="enable-background:new 0 0 40 40;" xml:space="preserve">
<g>
	<path style="fill:#98CCFD;" d="M4,32.5c-1.378,0-2.5-1.121-2.5-2.5V10c0-1.379,1.122-2.5,2.5-2.5h32c1.378,0,2.5,1.121,2.5,2.5v20   c0,1.379-1.122,2.5-2.5,2.5H4z"/>
	<g>
		<path style="fill:#4788C7;" d="M36,8c1.103,0,2,0.897,2,2v20c0,1.103-0.897,2-2,2H4c-1.103,0-2-0.897-2-2V10c0-1.103,0.897-2,2-2    H36 M36,7H4c-1.657,0-3,1.343-3,3v20c0,1.657,1.343,3,3,3h32c1.657,0,3-1.343,3-3V10C39,8.343,37.657,7,36,7L36,7z"/>
	</g>
</g>
<g>
	<circle style="fill:#FFFFFF;" cx="13" cy="16" r="4"/>
</g>
<g>
	<path style="fill:#FFFFFF;" d="M20,28H6c0-3.866,3.134-7,7-7S20,24.134,20,28z"/>
</g>
<line style="fill:none;stroke:#FFFFFF;stroke-linecap:round;stroke-miterlimit:10;" x1="33.5" y1="20.5" x2="24.5" y2="20.5"/>
<line style="fill:none;stroke:#FFFFFF;stroke-linecap:round;stroke-miterlimit:10;" x1="33.5" y1="16.5" x2="24.5" y2="16.5"/>
<line style="fill:none;stroke:#FFFFFF;stroke-linecap:round;stroke-miterlimit:10;" x1="33.5" y1="24.5" x2="24.5" y2="24.5"/>
</svg>
